/* XPM */
static char * wmtimer_xpm[] = {
"160 100 8 1",
" 	c #208120812081",
".	c #00000000FFFF",
"X	c #000000000000",
"o	c #C71BC30BC71B",
"O	c #861782078E38",
"+	c #F7DEF3CEFFFF",
"@	c #AEBAAAAAAEBA",
"#	c #2081B2CAAEBA",
"                                                                 ...............................................................................................",
"                                                                 ...............................................................................................",
"                                                                 ...............................................................................................",
"    XXXXXXXXXXXXXXXXXXXXXXXXXXXXXXXXXXXXXXXXXXXXXXXXXXXXXXX      ...............................................................................................",
"    XXXXXXXXXXXXXXXXXXXXXXXXXXXXXXXXXXXXXXXXXXXXXXXXXXXXXXXX     ...............................................................................................",
"    XXXXXXXXXXXXXXXXXXXXXXXXXXXXXXXXXXXXXXXXXXXXXXXXXXXXXXXo     ...............................................................................................",
"    XXXXXXXXXXXXXXXXXXXXXXXXXXXXXXXXXXXXXXXXXXXXXXXXXXXXXXXo     ...............................................................................................",
"    XXXXXXXXXXXXXXXXXXXXXXXXXXXXXXXXXXXXXXXXXXXXXXXXXXXXXXXo     ...............................................................................................",
"    XXXXXXXXXXXXXXXXXXXXXXXXXXXXXXXXXXXXXXXXXXXXXXXXXXXXXXXo     ...............................................................................................",
"    XXXXXXXXXXXXXXXXXXXXXXXXXXXXXXXXXXXXXXXXXXXXXXXXXXXXXXXo     ...............................................................................................",
"    XXXXXXXXXXXXXXXXXXXXXXXXXXXXXXXXXXXXXXXXXXXXXXXXXXXXXXXo     ...............................................................................................",
"    XXXXXXXXXXXXXXXXXXXXXXXXXXXXXXXXXXXXXXXXXXXXXXXXXXXXXXXo     ...............................................................................................",
"    XXXXXXXXXXXXXXXXXXXXXXXXXXXXXXXXXXXXXXXXXXXXXXXXXXXXXXXo     ...............................................................................................",
"    XXXXXXXXXXXXXXXXXXXXXXXXXXXXXXXXXXXXXXXXXXXXXXXXXXXXXXXo     ...............................................................................................",
"    XXXXXXXXXXXXXXXXXXXXXXXXXXXXXXXXXXXXXXXXXXXXXXXXXXXXXXXo     ...............................................................................................",
"    XXXXXXXXXXXXXXXXXXXXXXXXXXXXXXXXXXXXXXXXXXXXXXXXXXXXXXXo     ...............................................................................................",
"    XOXXXXXXXXXXXXOXXXXXXXXXXXXXOXXXXXXXXXXXXXOXXXXXXXXXXXXo     ...............................................................................................",
"    oooooooooooooooooooooooooooooooooooooooooooooooooooooooo     ...............................................................................................",
"    XXXXXXXXXXXXXXXXXXXXXXXXXXXXXXXXXXXXXXXXXXXXXXXXXXXXXXX      ...............................................................................................",
"    XXXXXXXXXXXXXXXXXXXXXXXXXXXXXXXXXXXXXXXXXXXXXXXXXXXXXXX      ...............................................................................................",
"    XXXXXXXXXXXXXXXXXXXXXXXXXXXXXXXXXXXXXXXXXXXXXXXXXXXXXXXX     ...............................................................................................",
"    XXXXXXXXXXXXXXXXXXXXXXXXXXXXXXXXXXXXXXXXXXXXXXXXXXXXXXXo     ...............................................................................................",
"    XXXXXXXXXXXXXXXXXXXXXXXXXXXXXXXXXXXXXXXXXXXXXXXXXXXXXXXo     ...............................................................................................",
"    XXXXXXXXXXXXXXXXXXXXXXXXXXXXXXXXXXXXXXXXXXXXXXXXXXXXXXXo     ...............................................................................................",
"    XXXXXXXXXXXXXXXXXXXXXXXXXXXXXXXXXXXXXXXXXXXXXXXXXXXXXXXo     ...............................................................................................",
"    XXXXXXXXXXXXXXXXXXXXXXXXXXXXXXXXXXXXXXXXXXXXXXXXXXXXXXXo     ...............................................................................................",
"    XXXXXXXXXXXXXXXXXXXXXXXXXXXXXXXXXXXXXXXXXXXXXXXXXXXXXXXo     ...............................................................................................",
"    XXXXXXXXXXXXXXXXXXXXXXXXXXXXXXXXXXXXXXXXXXXXXXXXXXXXXXXo     ...............................................................................................",
"    XXXXXXXXXXXXXXXXXXXXXXXXXXXXXXXXXXXXXXXXXXXXXXXXXXXXXXXo     ...............................................................................................",
"    XXXXXXXXXXXXXXXXXXXXXXXXXXXXXXXXXXXXXXXXXXXXXXXXXXXXXXXo     ...............................................................................................",
"    XXXXXXXXXXXXXXXXXXXXXXXXXXXXXXXXXXXXXXXXXXXXXXXXXXXXXXXo     ...............................................................................................",
"    XXXXXXXXXXXXXXXXXXXXXXXXXXXXXXXXXXXXXXXXXXXXXXXXXXXXXXXo     ...............................................................................................",
"    XOXXXXXXXXXXXXOXXXXXXXXXXXXXOXXXXXXXXXXXXXOXXXXXXXXXXXXo     ...............................................................................................",
"    oooooooooooooooooooooooooooooooooooooooooooooooooooooooo     ...............................................................................................",
"    XXXXXXXXXXXXXXXXXXXXXXXXXXXXXXXXXXXXXXXXXXXXXXXXXXXXXXX      ...............................................................................................",
"    XXXXXXXXXXXXXXXXXXXXXXXXXXXXXXXXXXXXXXXXXXXXXXXXXXXXXXX      ...............................................................................................",
"    XXXXXXXXXXXXXXXXXXXXXXXXXXXXXXXXXXXXXXXXXXXXXXXXXXXXXXXo     ...............................................................................................",
"    XXXXXXXXXXXXXXXXXXXXXXXXXXXXXXXXXXXXXXXXXXXXXXXXXXXXXXXo     ...............................................................................................",
"    XXXXXXXXXXXXXXXXXXXXXXXXXXXXXXXXXXXXXXXXXXXXXXXXXXXXXXXo     ...............................................................................................",
"    XXXXXXXXXXXXXXXXXXXXXXXXXXXXXXXXXXXXXXXXXXXXXXXXXXXXXXXo     ...............................................................................................",
"    XXXXXXXXXXXXXXXXXXXXXXXXXXXXXXXXXXXXXXXXXXXXXXXXXXXXXXXo     ...............................................................................................",
"    XXXXXXXXXXXXXXXXXXXXXXXXXXXXXXXXXXXXXXXXXXXXXXXXXXXXXXXo     ...............................................................................................",
"    XXXXXXXXXXXXXXXXXXXXXXXXXXXXXXXXXXXXXXXXXXXXXXXXXXXXXXXo     ...............................................................................................",
"    XXXXXXXXXXXXXXXXXXXXXXXXXXXXXXXXXXXXXXXXXXXXXXXXXXXXXXXo     ...............................................................................................",
"    XXXXXXXXXXXXXXXXXXXXXXXXXXXXXXXXXXXXXXXXXXXXXXXXXXXXXXXo     ...............................................................................................",
"    XXXXXXXXXXXXXXXXXXXXXXXXXXXXXXXXXXXXXXXXXXXXXXXXXXXXXXXo     ...............................................................................................",
"    XXXXXXXXXXXXXXXXXXXXXXXXXXXXXXXXXXXXXXXXXXXXXXXXXXXXXXXo     ...............................................................................................",
"    XXXXXXXXXXXXXXXXXXXXXXXXXXXXXXXXXXXXXXXXXXXXXXXXXXXXXXXo     ...............................................................................................",
"    XOXXXXXXXXXXXXOXXXXXXXXXXXXXOXXXXXXXXXXXXXOXXXXXXXXXXXXo     ...............................................................................................",
"    X++++++++++++O+++++++++++++++++++++++++++O++++++++++++Oo     ...............................................................................................",
"    X+@@@@@@@@@@@X+@@@@@@@@@@@@@@@@@@@@@@@@@@X+@@@@@@@@@@@Xo     ...............................................................................................",
"    X+@@@@@@@@@@@X+@@@@@@@@@@@@@@@@@@@@@@@@@@X+@@@@@@@@@@@Xo     ...............................................................................................",
"    X+@@@@@@@@@@@X+@@@@@@@@@@@@@@@@@@@@@@@@@@X+@@@@@@@@@@@Xo     ...............................................................................................",
"    X+@@@@@@@@@@@X+@@@@@@@@@@@@@@@@@@@@@@@@@@X+@@@@@@@@@@@Xo     ...............................................................................................",
"    X+@@@@@@@@@@@X+@@@@@@@@@@@@@@@@@@@@@@@@@@X+@@@@@@@@@@@Xo     ...............................................................................................",
"    X+@@@@@@@@@@@X+@@@@@@@@@@@@@@@@@@@@@@@@@@X+@@@@@@@@@@@Xo     ...............................................................................................",
"    X+@@@@@@@@@@@X+@@@@@@@@@@@@@@@@@@@@@@@@@@X+@@@@@@@@@@@Xo     ...............................................................................................",
"    X+@@@@@@@@@@@X+@@@@@@@@@@@@@@@@@@@@@@@@@@X+@@@@@@@@@@@Xo     ...............................................................................................",
"    XOXXXXXXXXXXXXOXXXXXXXXXXXXXXXXXXXXXXXXXXXOXXXXXXXXXXXXo     ...............................................................................................",
"    oooooooooooooooooooooooooooooooooooooooooooooooooooooooo     ...............................................................................................",
"                                                                 ...............................................................................................",
"                                                                 ...............................................................................................",
"                                                                 ...............................................................................................",
"                                                                 ...............................................................................................",
"XXXXXXXXXXXXXXXXXXXXXXXXXXXXXXXXXXXXXXXXXXXXXXXXXXXXXXXXXXXXXXXXXXXXXXXXXXXXXXX.................................................................................",
"X#####XXXXX#X#####X#####X#XXX#X#####X#####X#####X#####X#####XXXXXXXXXXXXXXXXXXX.................................................................................",
"X#XXX#XXXXX#XXXXX#XXXXX#X#XXX#X#XXXXX#XXXXXXXXX#X#XXX#X#XXX#XXXXXXXXXXXX#XXXXXX.................................................................................",
"X#XXX#XXXXX#XXXXX#XXXXX#X#XXX#X#XXXXX#XXXXXXXXX#X#XXX#X#XXX#XX#XXXX#XXXX#XXXXXX.................................................................................",
"X#XXX#XXXXX#X#####XX####X#####X#####X#####XXXXX#X#####X#####XX#XXXX#XXX#XXXXXXX.................................................................................",
"X#XXX#XXXXX#X#XXXXXXXXX#XXXXX#XXXXX#X#XXX#XXXXX#X#XXX#XXXXX#XXXXXXXXXXX#XXXXXXX.................................................................................",
"X#XXX#XXXXX#X#XXXXXXXXX#XXXXX#XXXXX#X#XXX#XXXXX#X#XXX#XXXXX#XX#XXXX#XX#XXXXXXXX.................................................................................",
"X#####XXXXX#X#####X#####XXXXX#X#####X#####XXXXX#X#####X#####XX#XXXX#XX#XXXXXXXX.................................................................................",
"XXXXXXXXXXXXXXXXXXXXXXXXXXXXXXXXXXXXXXXXXXXXXXXXXXXXXXXXXXXXXXXXXXXXXXXXXXXXXXX.................................................................................",
"................................................................................................................................................................",
"XXXXXXXXXXXXXXXXXXXXXXXXXXXXXXXXXXXXXXXXXXXXXXXXXXXXXXXXXXXXXXXXXXXXXXXXXXXXXXXXXXXXXXXXXXXXXXXXXXXXXXXXXXXXXXXXXXXXXXXXXXXXXXXXXXXXXXXXXXXXXXXXXXXXXXXXXXXXXXXX",
"XX###XX####XXX####X####XX####XX#####X#####X#XXX#XXXXX#XXXXX#X#XXX#X#XXXXX#XXX#X####XX#####X#####X#####X#####X#####X#####X#XXX#X#XXX#X#XXX#X#XXX#X#XXX#X#####XXXX",
"X#XXX#X#XXX#X#XXXXX#XXX#X#XXXXX#XXXXX#XXXXX#XXX#XXXXX#XXXXX#X#XXX#X#XXXXX##X##X#XXX#X#XXX#X#XXX#X#XXX#X#XXX#X#XXXXXXX#XXX#XXX#X#XXX#X#XXX#X#XXX#X#XXX#XXXXX#XXXX",
"X#XXX#X#XXX#X#XXXXX#XXX#X#XXXXX#XXXXX#XXXXX#XXX#XXXXX#XXXXX#X#XX#XX#XXXXX#X#X#X#XXX#X#XXX#X#XXX#X#XXX#X#XXX#X#XXXXXXX#XXX#XXX#X#XXX#X#XXX#XX#X#XX#XXX#XXXX#XXXXX",
"X#####X####XX#XXXXX#XXX#X####XX####XX#X###X#####XXXXX#XXXXX#X###XXX#XXXXX#XXX#X#XXX#X#XXX#X#####X##XX#X####XX#####XXX#XXX#XXX#X#XXX#X#XXX#XXX#XXX#####XXX#XXXXXX",
"X#XXX#X#XXX#X#XXXXX#XXX#X#XXXXX#XXXXX#XXX#X#XXX#XXXXX#XXXXX#X#XX#XX#XXXXX#XXX#X#XXX#X#XXX#X#XXXXX#X#X#X#XXX#XXXXX#XXX#XXX#XXX#X#XXX#X#X#X#XX#X#XXXXXX#XX#XXXXXXX",
"X#XXX#X#XXX#X#XXXXX#XXX#X#XXXXX#XXXXX#XXX#X#XXX#XXXXX#XXXXX#X#XXX#X#XXXXX#XXX#X#XXX#X#XXX#X#XXXXX#XX##X#XXX#XXXXX#XXX#XXX#XXX#X#XXX#X##X##X#XXX#XXXXX#X#XXXXXXXX",
"X#XXX#X####XXX####X####XX####XX#XXXXX#####X#XXX#XXXXX#X#####X#XXX#X####XX#XXX#X#XXX#X#####X#XXXXX#####X#XXX#X#####XXX#XXXX####XX###XX#XXX#X#XXX#X#####X#####XXXX",
"XXXXXXXXXXXXXXXXXXXXXXXXXXXXXXXXXXXXXXXXXXXXXXXXXXXXXXXXXXXXXXXXXXXXXXXXXXXXXXXXXXXXXXXXXXXXXXXXXXXXXXXXXXXXXXXXXXXXXXXXXXXXXXXXXXXXXXXXXXXXXXXXXXXXXXXXXXXXXXXX",
"................................................................................................................................................................",
"................................................................................................................................................................",
"................................................................................................................................................................",
"................................................................................................................................................................",
"................................................................................................................................................................",
"................................................................................................................................................................",
"................................................................................................................................................................",
"................................................................................................................................................................",
"................................................................................................................................................................",
"................................................................................................................................................................",
"................................................................................................................................................................",
"................................................................................................................................................................",
"................................................................................................................................................................",
" ...............................................................................................................................................................",
"................................................................................................................................................................",
"................................................................................................................................................................",
"................................................................................................................................................................"};
