/* XPM */
static char * totd_05_24_xpm[] = {
"64 64 65 1",
" 	c None",
".	c #070804",
"+	c #455C36",
"@	c #668853",
"#	c #123012",
"$	c #587545",
"%	c #2F4723",
"&	c #94A08D",
"*	c #585D54",
"=	c #081D14",
"-	c #28341F",
";	c #838A81",
">	c #454943",
",	c #171D1A",
"'	c #6C7466",
")	c #0B2816",
"!	c #5B6854",
"~	c #4F6A3F",
"{	c #1D3B12",
"]	c #3D5431",
"^	c #70955A",
"/	c #708067",
"(	c #2D3C24",
"_	c #889481",
":	c #676D63",
"<	c #4C5D41",
"[	c #213019",
"}	c #37492D",
"|	c #101B1D",
"1	c #435637",
"2	c #60804C",
"3	c #7A8873",
"4	c #3A3F36",
"5	c #5A6E4E",
"6	c #0F140B",
"7	c #A0AE98",
"8	c #23103A",
"9	c #1D2817",
"0	c #A0A4A2",
"a	c #969894",
"b	c #617753",
"c	c #16162F",
"d	c #7D9273",
"e	c #778173",
"f	c #50544E",
"g	c #363634",
"h	c #143615",
"i	c #848E81",
"j	c #1A2214",
"k	c #46623C",
"l	c #314E1E",
"m	c #6E7A68",
"n	c #304224",
"o	c #8B9A82",
"p	c #7C8E71",
"q	c #082214",
"r	c #98A690",
"s	c #596254",
"t	c #494E45",
"u	c #1E4214",
"v	c #0E2226",
"w	c #6B8E54",
"x	c #1C1636",
"y	c #4B623D",
"z	c #3B4E2D",
".....66,,-94gt[>>t':;:m*::*ft4[944!*e:;eae_;&0a;e'fsfft!t4-tgss'",
"...666,-[14fz!tf''e'3!:'m:<t4-g(**'s;:;'_3aiiai;eets*ffs*t4::e**",
"..66,[-t>!}*z<553/3!33;_3!f<>}**mm3'd;&&7000&0_;!e:;;;e:**f:ff4f",
".66,94(f}!1!:!/m3mi3333m:<z1<!bm/me3i3;ei3_&_&;a';e':***s:**ffgt",
".6|-4<151!<~2mdw3/3pd3b$11<55mbmbe//ppoooo&r&rp_3_e''!:::*>>gt>*",
"6j9>}(n}z+++<yyyykyyyyy<~<~yyy<<yy<y<<+++<+y<+++++++<<1<<f4f>f>t",
"6(4*14}1++~~~5~$$~$$~$~~~~~~~~~~~y~~~~~~y~+k<<<<<<<+<+<<<<>t>f4>",
"gfzs}}1+y5$$2222$2$$$$$$b$$$5$~5~$~~~~y~~y~yyyyykk+++<++k<f*tttf",
"-t}!<z+~~b222@2@@@@@@2222b$$$$$$$$~~~~~~~~~~~yk++k+++++++<**ff*:",
"(f*!!]y~b2@wwwwwww@@@@@2222222$$$$$$$$~~~y~k~yyyy++++1+++<***s::",
"gn!m3+~$2@@^w^^^w^www@w@@@22222$$$$$~$$~~~~yk~k+y++++11++<<*f'::",
"fte23+~$@@^^^^^^^w^www@@@2@222b2b$$$$~~~~~~~y++k+++111]++<*:sm::",
"!s3/dy$$@w^^^^^^^^^wwww@@@@222$2$$$$$$~$y~kkyk+++11]]1]]++*':ms'",
"mmi3_k~2@w^^^r^^^^^^wwww@@22@22$b$$$~~~~~y~yk+++1]1]]]]+1+*:f:f:",
";m33dy$b@^^^^^^^^^^^ww@@@@@22$2$$$$$~~~~~kk+++++]]]]zz]]1+<*fs*'",
"e3p&dy~2@w^^^^^^^^www@@@@22222$$$$~$~~~kkykk++]]1]zzzzz111*sfs:'",
";&_ody$$@w^^^^^^^^^ww@@@@222$$$$$$~~~~yyk+++++1]zzzzzzz]1+f*s:':",
"e&&_dy$2@w^^^^^^^www@@@2222$2$$$$~~~~~yyyy++1]]]]z}zzzzz11<<ss::",
";io3/y5$@w^^^^^^wwww@@2@222$$$$~$~~~yy~++++11]zzzz}}}zz]1+<<ss::",
"i3&'@y$$2@w^^^^^ww@@@22222$$$$~$~~~yyk+k++1+]z]z}l}}}}}z11f<ss''",
"_3o!@y$$@@ww^wwwww@@@222$2$$$$~~~~~~ky+++1]]]z}z}}%%%}}z1+1<s!''",
"i!'s/y~$2@wwwwwww@@22@222$$$$~$~~~kyyk++1+]]z}}}}}}n}}}}]+1fs!:'",
"'1bbpy$$2@@@ww@@@@@222$$$$$5$~~~~~kk+++]]]zzzz}%nnnnn}}}]11fs5:'",
":'3/dy~$22@@w@w@@2222222$$$~~~~~ykk+++1+1z]zz}}n}nn(nn}z]11<s!::",
":e;3d~~$2@@@w@@@@2222$$$$$5~~~~yyky++1]]]z}}}}}(nnn4(n}}11]f*s!:",
"33d/dy~$222@@2@2222$$2$$$~$~~~yykk++]+]]zzz}}nnnn4((nnn}]1zf<s!!",
"ei_3dy$$$22@2@2@2222$$$5$~~~~yky++++]]zz>z}%}nn4(((((n}}]<]t<ss:",
"a0&ddk~$2222@22222$$$$~$~~~~yyyk++111z]zz%}4nn((((-(((n}z1zf<*s!",
"3&_pdk~$$222@222$2$$$$~$~~~y~k+y++]]]z}z}}%%4n((((--(((}]1z]<<ss",
"'_dpdy~$$222222$2$$$$~5~~~yk+k+++1]]zzz}}n%n(((---(-((n}z+tzf<s~",
"eao_pk~$$$2$2$2$$$$~$~~~~yyy+++1]]zz}}}}4nnn(((------((}}1}]1<y!",
"o&idpk~~$$$2$2$b$$~$5~~~yykk++111z]zz}}n}n(((-------(-(%z1}}1<<~",
"e3///k~$$$$2$$$$$$~~~$~~ky++++]]]z>z}}nn4n((((-[[[[[-((}z+}zf<<y",
"33//3+~~$$$$$2$$$~5~~yykyk+++]1]zzl}}4%n((((--[-[[9[--(nz1}z11<y",
"_i33pk~$$$$$$$$~$~~~~~kk+++11]zzzz}}%nnn((-([-[9[[99--(nz1n}z1++",
";;333<~~~$$$$$5$~~~~~yyy++++]]]z}}}%4n(((-(---9[999[[-(n}+n}]]]]",
"ee3/@<~~$$$$5$~~~~kk~k+++11]zzzz}}}%(n4((-[[[[9[99999-(n}+(n%l]l",
"ai_i3k~~~~5~$~$~~~~kkk+++1]1]z}}}%4(n(((---[-9999999[[-(z1(n%%ll",
"00aie<~~5~$~~~~~y~kk+++1+]zzzz}}n}n(((({--[9[9999jj99--4}+{n%%%l",
"ai_ebky~$~~$~~~~~kk++++1]]]z}}}}nn(n(----[9-99jjjjjj9[-(l1-{uu%l",
"a;;mbky~~~~~~~ykyky++1+1]zzz}}nn4n(((---[-99999jjjjj9[-(}1{{-uul",
";m/bbk~y~~~~~~~yky+++1]]zz}}}n}n((((----9[999jjjj,,,j9-(}+[[{uu%",
";m/bbky~~~~~yyky+++111]zzz}}}nnn((-(--9-9999j,,,j,,j99-(}]##[{%%",
"/'b:$yyy~~~yyyykk+++]]zz}}}}nn4((-(--[[[999jjj,,,,,,j9[(}1##h{{%",
"m'b5$ky~yy~y~k+++1]1]zzz}}nn4((((---[[9999jjjj,|,,|,j9[(}19#{{u%",
"mm'b5yyy~~yk+k++++1]zzz}}}4nn(((---9[-999jj,,|||||6|,9[(}1)##{{u",
"'b'$5ykyykyy+k+1]]]zz}}}%%%(((-(---[99999jj,,,666|6|,9[(%1j)##{{",
"m/m'$+ykkykkk+11]]zzzz}}4n(n(((---9[[[99jj,,,|,,666,,j[(}+)j#h#{",
":'m5b<yykyk++++]]]]}}}}}}n4((-(---[[999jjjj,,6|6666|,99(l+q))##h",
"'m'b5ykkyk+++]1]]z}z}}nnnn((((---[[[9999jj,,|,6,66,,,9-nz+=q)##h",
"'''5!<+k++++11]]]zzz}}}nnn((((---[[[[99999j,,,|,,6|jj9-n1y=qq))#",
"b'''b+ykk++1+1]zz]z}}}}}4nn((((--g---[9999j99j,,,j,j9-(}1~q=)q)#",
"''':!<++k++1111]z}z}}}%}%nn(((((--g-[-[[9[99999jj9j9[(n]+~==qqv)",
"':':5+yy+k++1111]]z]zz}}}}4}}nn4n((g((--(---[[[[[[--(%z+~$q==q)v",
"m'b!b+<k++++++1]11]]]]z}zz}}}}}}}n}n4nn((n((((((((n%}]+y$bq===vv",
":s:''<yyk+++++1+1111]1111]1]]zzzzzzzzz}zz}}}}}%}%zz]1+y$b@===|vv",
"'!mmm<<<y<<<++++++++++++++++++++++++++11++1111+++++y~552/@=|||||",
"''e'm5bb!~ys<<<++1]]z}}zz}}%n((({[{[#9#9))))qq============|=||c|",
"e'/:m:'!!!y~s<<1+]]z]]]]]z}%%u(({{{{{###)9))))qq======6==v||||cc",
";m3:m'55!!!sy*<+111]]]]]]ll%%%%un({[{#####)))))q)======c|c||cccc",
";mim/''!!!!!~syy<++]]l]]]ll%u%%uu{{{{####9))))qq)q==|||||c|vccxx",
"ii;m'!!!!!!!s~*~yk+++]llll%l%u%%nu{{hhh####)q)))qvv|v||ccccc,xx8",
"e;3'5!5!~!~!~~s~<++]]+]]]ll%l%u%u{{{{hh##)))))q)vv=|ccccccxxxx88",
"e;e5:5!5!5!!~!yyyk+]]]+]ll%l%l%%uuh{hh#h#))))))v=vvcv,cccxxxxx88"};
