/* XPM */
static char * yellow_xpm[] = {
"64 64 65 1",
" 	c None",
".	c #020204",
"+	c #8A8A30",
"@	c #C6C60C",
"#	c #AAAA0E",
"$	c #9A9A1C",
"%	c #E6E60C",
"&	c #BABA0C",
"*	c #A2A214",
"=	c #FAF60C",
"-	c #969204",
";	c #DAD60C",
">	c #B4B20C",
",	c #B2AE0F",
"'	c #666204",
")	c #9A9A2C",
"!	c #F2EE0C",
"~	c #A2A21C",
"{	c #FEFE0C",
"]	c #96922C",
"^	c #E2DE0C",
"/	c #928E2F",
"(	c #D0CE0C",
"_	c #AEAE0C",
":	c #C4C20C",
"<	c #92923C",
"[	c #AEAA1C",
"}	c #EEEA0C",
"|	c #BAB609",
"1	c #8E8E24",
"2	c #AEAA10",
"3	c #A29E14",
"4	c #EAEA0C",
"5	c #C2BE0C",
"6	c #2E2E04",
"7	c #6E6E04",
"8	c #3E3A04",
"9	c #7A7604",
"0	c #FEFE2C",
"a	c #AAA60C",
"b	c #9A9634",
"c	c #CECA0C",
"d	c #FEFA0C",
"e	c #E6E20C",
"f	c #D6D20C",
"g	c #767204",
"h	c #9E9E29",
"i	c #969628",
"j	c #9E9E1C",
"k	c #BEBE0C",
"l	c #A6A614",
"m	c #FAFA0C",
"n	c #DEDA0C",
"o	c #B6B60C",
"p	c #F6F20C",
"q	c #E2E20C",
"r	c #EAE61C",
"s	c #8E8E34",
"t	c #A6A220",
"u	c #9A9624",
"v	c #CAC60C",
"w	c #9E9A1C",
"x	c #EAE60C",
"y	c #BEBA0C",
"z	c #A6A214",
"                                                                ",
"                                                                ",
"                                                                ",
"                                                                ",
"                                                mmmm{{{{{{0{{r  ",
"                               m{{m0==00m{00{{{{{{{{{{{{{{{{%)  ",
"             d{{{{{{{{m0{0{{{{{{{{{{{{m{{{{{{{{{{{{{{{{{{{=e5   ",
"        {{{{{{{{{{{{{{{{{{{{{{{{{{d{{m{mmm{{mmmd===p=!!!p!4;>   ",
"        {{{{{{ddd{dmd{d=mmd===ppppppp!!pp!!!!!!!!!p!ppp!p!e(h   ",
"        {{d==pppppp!p!pp!!!!!!pp!p!!!!!!!!!p!!!!!!!!!!!!!}^:    ",
"        {{mp!ppp!!!!!!!!!!p!!!!!!!!!pp!!pp!pppppp!!!!!!!p}n|    ",
"        {{=!p!!!!!p!p!!!!!!!p!!!>p!p!!!p!!!!!!!!!!p!!!p!!rf[    ",
"        {{=!!!!!!!!!!!ppp!p!!!p!6!!!!p!!!!!!!!!!p!ppp!p!!^cb    ",
"        {{=!!!!pp!p!pp!!!!!!pp!!6p!!!!!!!p!!!!!!!!!!!!!!!^k     ",
"        {d=ppp!!!!!!!!!!p!!!!!p!8!pp!!pp!ppp!pp!!!!!!!p!x;,     ",
"        {{p!!!!!p!p!!!!!!!p!!!!!.p!!!p!!!!!!p!!!p!!!p!!!e(h     ",
"       {{{p!!!!!!!!!ppp!p!!!p!!!g!!p!!!!!!!!!!p!ppp!p!!!^@      ",
"       {{dp!!pp!p!pp!!!!!!pp!!p!v!!!!!!p!!!!!!!!!!!!!!pr;[      ",
"       {{dpp!!!!!!!!!!p!!!!!p!!!pp!!pp!ppp!pp!!!!!!!p!!e(b      ",
"       {{mp!!!p!p!!!!!!!p!!!!!p!!!!p!!!!!!p!!!p!!!p!!!!^v       ",
"       {{m!!!!!!!!ppp!p!!!p!!!p!!p!!!!!!!!!!!!ppp!p!!!x;,       ",
"       {{=ppp!p!pp!!!!!!pp!!p!!!!!!!!p!!!!!!!!!!!!!!p!x(~       ",
"       {{=!!!!!!!!!!p!!!!!p!!!pp!!pp!ppp!pppp!!!!!p!p!ev        ",
"       {{=!!p!p!!!!!!!p!!!!!p!!!!p!!!!!!p!!!!!!!p!!!!};y        ",
"       {{=!!!!!!ppp!p!!!p!!!p!!p!!!!!!!!!!!!ppp!p!!!!x;[        ",
"       {{=p!p!pp!!!!!!pp!!p!!!!!!!!p!!!!!!!!!!!!!!p!!ecb        ",
"       {{p!!!!!!!!p!!!!!p!!!pp!!pp!ppp!pppp!!!!!p!pp}^5         ",
"       {{=p!p!!!!!!!p!!!!!p!!!!p!!!!!!p!!!!!p!p!!!!!4;o         ",
"      {{dp!!!!ppp!p!!!p!!!p!!p!!!!!!!!!!!!p!p!p!!!!!efl         ",
"      {{{pp!pp!!!!!!pp!!p!!!!!!!!p!!!!!!!!!!!!!!p!!!ev<         ",
"      {{d!!!!!!!p!!!!!p!!!pp!!pp!ppp!pppp!!!!!p!pp!}ny          ",
"      {{{pp!!!!!!!p!!!!!p!!!!p!!!!!!p!!!!!p!!!!!!!p%;[          ",
"      {{d!!!ppp!p!!!p!!!p!!p!!!'.'!!!!!!p!ppp!!!!!!e()          ",
"      {{m!pp!!!!!!pp!!p!!!!!!!!...!!!!!!!!!!!!p!!!}n@           ",
"      {{d!!!!!p!!!!!p!!!pp!!pp!'.'!pppp!!!!!!!pp!p};>           ",
"      {{m!!!!!!!p!!!!!p!!!!p!!!!!pp!!!!!p!!!p!!!p!e(t           ",
"      {{=!ppp!p!!!p!!!p!!p!!!p!!!!!!!!p!ppp!p!!!!!ec            ",
"      {{=p!!!!!!pp!!p!!!!!!!!!p!!!!!!!!!!!!!!!!!!}ny            ",
"      {{p!!!p!!!!!p!!!pp!!pp!!pp!pppp!!!!!!!pp!p!xf[            ",
"      {{=!!!!!p!!!!!p!!!!p!!!!!!p!!!!!p!!!p!!!p!!^cs            ",
"     {{{=pp!p!!!p!!!p!!p!!!p!!!!!!!!p!ppp!p!!!!p};&             ",
"     d{dp!!!!!pp!!p!!!!!!!!!p!!!!!!!!!!!!!!!p!!!rf[             ",
"     {{dp!p!!!!!p!!!pp!!pp!!pp!pppp!!!!!!!p!pp!!ecb             ",
"     {{d!!!!p!!!!!p!!!!p!!!!!!p!!!!!p!!!p!!!!!!}n5              ",
"     {{dp!p!!!p!!!p!!p!!!p!!!!!!!!p!ppp!p!!!!p!x;>              ",
"     {{d!!!!pp!!p!!!!!!!!!p!!!!!!!!!!!!!!!p!!!pr()              ",
"     {{dp!!!!!p!!!pp!!pp!!pp!pppp!!!!!!!p!pp!!}^v               ",
"     {{=!!p!!!!!p!!!!p!!!!!!p!!!!!p!!!p!!!!!p!}n|               ",
"     {{=p!!!p!!!p!!p!!!p!!!!!!!!p!ppp!p!!!!!!!eft               ",
"     {{=!!pp!!p!!!!!!!!!p!!!!!!!!!!!!!!!p!!!!!ecs               ",
"     {{=!!!!p!!!pp!!pp!!pp!pppp!!!!!!!p!pp!p!}n5                ",
"     {{pp!!!!!p!!!!p!!!!!!p!!!!!p!!!p!!!!!p!!x;o                ",
"     {{p!!p!!!p!!p!!!p!!!!!!!!p!ppp!p!!!!!!p!e(h                ",
"    0{dppp!!p!!!!!!!!!p!!!!!!!!!!!!!!!!}}xx^e;:                 ",
"    0{d!!!p!!!pp!!pp!!pp!pp!}}xxxeee^nn;;(fcv|a                 ",
"    {{{p!!!!p!!!!!}}}xxex^^nnnfffv(cv::,>3z++                   ",
"    {{dpp}}}}xee^^nnn;f((vv5|y2221i]+                           ",
"    {{=e^^^;;ff(vc5:|,,uw+                                      ",
"    {m;(v::&&2z*+1                                              ",
"    =k-9g                                                       ",
"                                                                ",
"                                                                ",
"                                                                ",
"                                                                "};
