/* XPM */
static char * clip2_xpm[] = {
"48 48 93 2",
"  	c None",
". 	c #6B6B6B",
"+ 	c #6F6F6F",
"@ 	c #696969",
"# 	c #626262",
"$ 	c #595959",
"% 	c #4C4C4C",
"& 	c #646464",
"* 	c #7F7F7F",
"= 	c #8E8E8E",
"- 	c #9B9B9B",
"; 	c #AEAEAE",
"> 	c #ACACAC",
", 	c #D3D3D3",
"' 	c #D5D5D5",
") 	c #CDCDCD",
"! 	c #BABABA",
"~ 	c #808080",
"{ 	c #BDBDBD",
"] 	c #D1D1D1",
"^ 	c #DCDCDC",
"/ 	c #CCCCCC",
"( 	c #B3B3B3",
"_ 	c #969696",
": 	c #8A8A8A",
"< 	c #7A7A7A",
"[ 	c #A8A8A8",
"} 	c #E0E0E0",
"| 	c #E5E5E5",
"1 	c #A2A2A2",
"2 	c #B8B8B8",
"3 	c #787878",
"4 	c #949494",
"5 	c #C0C0C0",
"6 	c #D0D0D0",
"7 	c #9F9F9F",
"8 	c #7C7C7C",
"9 	c #929292",
"0 	c #A0A0A0",
"a 	c #989898",
"b 	c #D8D8D8",
"c 	c #D9D9D9",
"d 	c #DBDBDB",
"e 	c #DFDFDF",
"f 	c #6D6D6D",
"g 	c #C2C2C2",
"h 	c #B6B6B6",
"i 	c #737373",
"j 	c #5D5D5D",
"k 	c #4E4E4E",
"l 	c #4A4A4A",
"m 	c #555555",
"n 	c #E4E4E4",
"o 	c #262626",
"p 	c #C3C3C3",
"q 	c #1F1F1F",
"r 	c #BFBFBF",
"s 	c #535353",
"t 	c #909090",
"u 	c #323232",
"v 	c #9D9D9D",
"w 	c #575757",
"x 	c #EAEAEA",
"y 	c #EDEDED",
"z 	c #2C2C2C",
"A 	c #515151",
"B 	c #E9E9E9",
"C 	c #363636",
"D 	c #757575",
"E 	c #EFEFEF",
"F 	c #2B2B2B",
"G 	c #333333",
"H 	c #858585",
"I 	c #676767",
"J 	c #C9C9C9",
"K 	c #878787",
"L 	c #E1E1E1",
"M 	c #C6C6C6",
"N 	c #ECECEC",
"O 	c #C8C8C8",
"P 	c #E7E7E7",
"Q 	c #E3E3E3",
"R 	c #FAFAFA",
"S 	c #DEDEDE",
"T 	c #E2E2E2",
"U 	c #222222",
"V 	c #5F5F5F",
"W 	c #E8E8E8",
"X 	c #303030",
"Y 	c #505050",
"Z 	c #F5F5F5",
"` 	c #F1F1F1",
" .	c #F3F3F3",
"                                                                                                ",
"                                                                                                ",
"                                                                                                ",
"                                                                                                ",
"                                                                                                ",
"                                                                                                ",
"                                                                                                ",
"                                                                            . + @ # $ %         ",
"                                                              & * = - ; ; > , ' ' , ) ! ~       ",
"                                                            = { ] ^ / ( _ : ~   < = [ } | <     ",
"                                                        $ 1 ] 2 3                       ! 4     ",
"                                                      + 5 6 ~                           7 :     ",
"                                                    ~ / 6 8 8 9 > ( 0 8               $ [ 3     ",
"                                                & 1 , ! a ; b c b c d } e :           f [       ",
"                                              < g 6 [ 0 h a i j k l l m ~ n         o * 9       ",
"                                          $ - ' p - ; (                 q r         k 1 s       ",
"                                        + 5 d ( 0 h t $                 q 0       u ~ _         ",
"                                      ~ d , v ; ! <                     q >       @ 1 @         ",
"                                  w [ x r t r ( @                     q %       l = =           ",
"                                + ] y 0 t d :                         q *     z 8 0 #           ",
"                            A t B d t ; } .                           w ( + q C ( D             ",
"                          # ! E p a / (                               = 0 F G ( ~               ",
"                        < b | ( [ ) H                               ~ ( ~ H ! H                 ",
"                      - x b [ ! ( +                             I 4 h - 7 0 j                   ",
"                  + p x r ; J 4                               H ! ( 0 ; - l                     ",
"                K L ^ [ M r i                             . 0 / [ > ; <                         ",
"            w ; N J 1 } 7                               < / O 0 h 1 +                           ",
"          i ] N ( 2 P K                             $ _ } 2 - p K                               ",
"        : E Q 7 ' J                               + M L a [ M f                                 ",
"      1 R S 1 d - C                           $ a Q ) 9 5 -                                     ",
"      f M d ) +                             + { T ! 0 M 3                                       ",
"        ~ ) .                           s ~ b b ( > 0                                           ",
"          [ ~                         I 2 L / ; ( ~                                             ",
"          + ! i                   k ~ b d ( h - f                                               ",
"          U + ! V               # ( W O ; { ~                                                   ",
"            X 2 h z           ~ c n ( 5 ;                                                       ",
"            q Y p t         1 E b 0 , =                                                         ",
"                i / K   3 b Z p [ p                                                             ",
"                  = g [ `  .( 2 7 l                                                             ",
"                    ; , y 2 [ ~                                                                 ",
"                      v 6 ; &                                                                   ",
"                        ~                                                                       ",
"                                                                                                ",
"                                                                                                ",
"                                                                                                ",
"                                                                                                ",
"                                                                                                ",
"                                                                                                "};
