/* XPM */
static char * Netscape_1x_xpm[] = {
"48 48 48 1",
" 	c None",
".	c #00000C300820",
"X	c #00000C301040",
"o	c #000014511040",
"O	c #000004100000",
"+	c #000014511861",
"@	c #00001C711861",
"#	c #00001C712081",
"$	c #D75CE38DE79D",
"%	c #F7DEF7DEF7DE",
"&	c #EFBEF7DEF7DE",
"*	c #000024922081",
"=	c #0000249228A2",
"-	c #492486178E38",
";	c #10404D345144",
":	c #104028A228A2",
">	c #86179E79A699",
",	c #00002CB230C2",
"<	c #61859658A699",
"1	c #AEBACB2BCF3C",
"2	c #8E38B2CABEFB",
"3	c #000034D338E3",
"4	c #208169A671C6",
"5	c #000034D34103",
"6	c #00003CF34103",
"7	c #00003CF34924",
"8	c #BEFBCF3CD75C",
"9	c #000045144924",
"0	c #000045145144",
"q	c #00004D345965",
"w	c #00004D345144",
"e	c #0000555569A6",
"r	c #000055556185",
"t	c #000055555965",
"y	c #208182079658",
"u	c #00005D7569A6",
"i	c #00005D756185",
"p	c #00006DB679E7",
"a	c #0000659571C6",
"s	c #30C255555965",
"d	c #082018611040",
"f	c #000008200000",
"g	c #79E7820779E7",
"h	c #C71BC71BC71B",
"j	c #30C241034103",
"k	c #000000000000",
"l	c #30C238E330C2",
"z	c #61857DF779E7",
"                                                ",
"...XXXXXooooooooooooooooooooooooooooooooXXXX...O",
"XXXooooooooooooo+++++++++++++++oooooooooooooXXXO",
"oooooooo+++++++++++++++++++++++++++++++ooooooooO",
"oooo+++++++@@@@@@@@@@@@@@@@@@@@@@@@@@+++++++oooO",
"o++++@@@@@@@@@@@@@###########@@@@@@@@@@@@@+++++O",
"++@@@@@@@@############################@@@@@@@@+.",
"@@@@####+@@@@#+####################@@+#####@@@@X",
"@######@$%&&&&%+**==========-%%&&&&&%%X########X",
"#######*#=;&%%%$#============#:>%%%>=#**#######o",
"###*=======@%%%%>===,,,,,,,=====<%&#=======**##+",
"*=========,, %%%%<,,,,,,,,,,,,,,=%1=,==========+",
"=====,,,,,,,;%%%%% ,,,,,,,,,,,,,=%2,,,,,,,=====#",
"=,,,,,,,,,,,3% %%%%4333333333333,%2,,,,,,,,,,,=#",
",,,,,,,333335%;-%%%%;33333333333,%233333,,,,,,,=",
",,,,333333335%;3<%%%%;3333333333,%23333333333,,=",
"3333333333336%;532%%%%;6666666653%2333333333333=",
"3333333366667%;6638%%%%5666666663%2666633333333,",
"3333666666669%;6675$%%%%577777666%2666666666333,",
"6666666667770%;99996&%%%&69999996%2777666666666,",
"6666777999990%;999997%%%%$6999997%29999977766663",
"677999999999q%;wwwwwww%%%%$9wwww9%20999999999775",
"99999900wwwwq%;wwqqqqqe%%%%1wqww0%1wwww009999996",
"990wwwwwwqqqr%4qttttttt4%%%%2qtqw%1qqqwwwwww0097",
"wwwwqqqqttttr%4rrrrrrrrry%%%%>trt%1ttttqqqqwwww9",
"wqqqtttrrrrru%4rriiiiiiii<%%%%<rt%1rrrrrtttqqqq0",
"qttrrrrrriiie%4uuuuuuuuuuu2%%%%yr%1iiirrrrrrtttw",
"rrrriiuuuuuup%4u;;;aaaaaaau1%%%%4%1uuuuuuiirrrrq",
"iiuuuuuu;;aap%4aappppppppppp$%%%%%1aaa;uuuuuuiit",
"uuuu;aaaappy2%>-<s::ddfffd:d:gh$$%$yppaaaaa;uuur",
";aaappy-<j:kl%skkkkkkkkkkkkkkkkkkkkkf:---ypaaa;u",
"ppy<;dkkkkkk2%$kkkkkkkkkkkkkkkkkkkkkkkkkkk:z-ypu",
"sdkkkkkkkkkj%%%>kkkkkkkkkkkkkkkkkkkkkkkkkkkkkkj<",
"kkkkkkkkk%%%%%%%%%2kkkkkkkkkkkkkkkkkkkkkkkkkkkkk",
"kkkkkkkkkkkkkkkkkkkkkkkkkkkkkkkkkkkkkkkkkkkkkkkk",
"kkkkkkkkkkkkkkkkkkkkkkkkkkkkkkkkkkkkkkkkkkkkkkkk",
"kkkkkkkkkkkkkkkkkkkkkkkkkkkkkkkkkkkkkkkkkkkkkkkk",
"kkkkkkkkkkkkkkkkkkkkkkkkkkkkkkkkkkkkkkkkkkkkkkkk",
"kkkkkkkkkkkkkkkkkkkkkkkkkkkkkkkkkkkkkkkkkkkkkkkk",
"kkkkkkkkkkkkkkkkkkkkkkkkkkkkkkkkkkkkkkkkkkkkkkkk",
"kkkkkkkkkkkkkkkkkkkkkkkkkkkkkkkkkkkkkkkkkkkkkkkk",
"kkkkkkkkkkkkkkkkkkkkkkkkkkkkkkkkkkkkkkkkkkkkkkkk",
"kkkkkkkkkkkkkkkkkkkkkkkkkkkkkkkkkkkkkkkkkkkkkkkk",
"kkkkkkkkkkkkkkkkkkkkkkkkkkkkkkkkkkkkkkkkkkkkkkkk",
"kkkkkkkkkkkkkkkkkkkkkkkkkkkkkkkkkkkkkkkkkkkkkkkk",
"kkkkkkkkkkkkkkkkkkkkkkkkkkkkkkkkkkkkkkkkkkkkkkkk",
"kkkkkkkkkkkkkkkkkkkkkkkkkkkkkkkkkkkkkkkkkkkkkkkk",
"kkkkkkkkkkkkkkkkkkkkkkkkkkkkkkkkkkkkkkkkkkkkkkkk"};
