/* XPM */
static char *back_xpm[] = {
/* width height num_colors chars_per_pixel */
"    64    64       48            1",
/* colors */
". c #010103",
"# c #818183",
"a c #414143",
"b c #c1c1c3",
"c c #a1a1a3",
"d c #616163",
"e c #919193",
"f c #515153",
"g c #b1b1b3",
"h c #717173",
"i c #29292b",
"j c #fdfdfb",
"k c #cdcdcb",
"l c #353533",
"m c #89898b",
"n c #49494b",
"o c #a9a9ab",
"p c #69696b",
"q c #99999b",
"r c #59595b",
"s c #b9b9bb",
"t c #79797b",
"u c #bdbdbb",
"v c #c9c9cb",
"w c #3d3d3b",
"x c #313133",
"y c #7d7d7b",
"z c #d1d1d3",
"A c #39393b",
"B c #858583",
"C c #454543",
"D c #c5c5c3",
"E c #a5a5a3",
"F c #656563",
"G c #959593",
"H c #555553",
"I c #b5b5b3",
"J c #757573",
"K c #8d8d8b",
"L c #4d4d4b",
"M c #adadab",
"N c #6d6d6b",
"O c #9d9d9b",
"P c #5d5d5b",
"Q c #009f00",
"R c #00a600",
"S c #a6a600",
"T c #a60000",
/* pixels */
"qqqqqqqqqqqqqqqOOOOOOccccccEEEEEEEooooooMMMMMMggggggIIIIIIIIsssN",
"OOOOOOOOOOOOOOOqOOOccOOcccEcEEEEEoEEoooMoMMgggMgggIIgIIIssubbDGC",
"qqxxxxxxxxxxxlAAAwwwaaaCnnLLLffffHrHrPPddddFpppNNNNhhJJJttyyy#AC",
"qqxxxlllllllAAAAwwaaaCCnnnLLfffHHrHPPPdddFpppNNNhhJJhJtttyy#BBwC",
"OqllxlllllAAwwwaaaCCCnnnLLfffHrrrPrPdddFpFpppNNhhhhtJttyy##BBBaC",
"OOxll.....................................................iBBman",
"OOxll.QRRSSTTTTTTiiiiiiiiiiiiiiiiiiiiiiiiiiiiiiiiiiiiiiiiijmmman",
"Oqxll.QRRSSTTTTTTiiiiiiiiiiiiiiiiiiiiiiiiiiiiiiiiiiiiiiiiijmmKCC",
"OOxxl.QRRSSTTTTTTiiiiiiiiiiiiiiiiiiiiiiiiiiiiiiiiiiiiiiiiijKmKCn",
"OOxll.QRRSSTTTTTTiiiiiiiiiiiiiiiiiiiiiiiiiiiiiiiiiiiiiiiiijKKKnn",
"OOxxl.QRRSSTTTTTTiiiiiiiiiiiiiiiiiiiiiiiiiiiiiiiiiiiiiiiiijKeenn",
"OclAA.QRRSSTTTTTTiiiiiiiiiiiiiiiiiiiiiiiiiiiiiiiiiiiiiiiiijeeeCL",
"OOxAA.QRRSSTTTTTTiiiiiiiiiiiiiiiiiiiiiiiiiiiiiiiiiiiiiiiiijeeGnL",
"OOAAw.QRRSSTTTTTTiiiiiiiiiiiiiiiiiiiiiiiiiiiiiiiiiiiiiiiiijeGGnn",
"ccAAw.QRRSSTTTTTTiiiiiiiiiiiiiiiiiiiiiiiiiiiiiiiiiiiiiiiiijeGGnL",
"ccAww.QRRSSTTTTTTiiiiiiiiiiiiiiiiiiiiiiiiiiiiiiiiiiiiiiiiijqGqLL",
"ccAwa.QRRSSTTTTTTiiiiiiiiiiiiiiiiiiiiiiiiiiiiiiiiiiiiiiiiijGGGLL",
"EEwwa.QRRSSTTTTTTiiiiiiiiiiiiiiiiiiiiiiiiiiiiiiiiiiiiiiiiijqqOnL",
"Ecwaa.QRRSSTTTTTTiiiiiiiiiiiiiiiiiiiiiiiiiiiiiiiiiiiiiiiiijGOOLf",
"EEaaC.QRRSSTTTTTTiiiiiiiiiiiiiiiiiiiiiiiiiiiiiiiiiiiiiiiiijOqOLL",
"EEwaC.QRRSSTTTTTTiiiiiiiiiiiiiiiiiiiiiiiiiiiiiiiiiiiiiiiiijOOcff",
"ooaCC.QRRSSTTTTTTiiiiiiiiiiiiiiiiiiiiiiiiiiiiiiiiiiiiiiiiijOccLf",
"EoaCn.QRRSSTTTTTTiiiiiiiiiiiiiiiiiiiiiiiiiiiiiiiiiiiiiiiiijOcEff",
"ooCnn.QRRSSTTTTTTiiiiiiiiiiiiiiiiiiiiiiiiiiiiiiiiiiiiiiiiijEccff",
"ooCnL.QRRSSTTTTTTiiiiiiiiiiiiiiiiiiiiiiiiiiiiiiiiiiiiiiiiijcEEfH",
"oMnLL.QRRSSTTTTTTiiiiiiiiiiiiiiiiiiiiiiiiiiiiiiiiiiiiiiiiijEEEHf",
"MMnLL.QRRSSTTTTTTiiiiiiiiiiiiiiiiiiiiiiiiiiiiiiiiiiiiiiiiijEEEHH",
"MMLLH.QRRSSTTTTTTiiiiiiiiiiiiiiiiiiiiiiiiiiiiiiiiiiiiiiiiijEoMfH",
"MMLLf.QRRSSTTTTTTiiiiiiiiiiiiiiiiiiiiiiiiiiiiiiiiiiiiiiiiijooMHH",
"ggffH.QRRSSTTTTTTiiiiiiiiiiiiiiiiiiiiiiiiiiiiiiiiiiiiiiiiijMMMfH",
"MgffH.QRRSSTTTTTTiiiiiiiiiiiiiiiiiiiiiiiiiiiiiiiiiiiiiiiiijoMgHH",
"gMfHr.QRRSSTTTTTTiiiiiiiiiiiiiiiiiiiiiiiiiiiiiiiiiiiiiiiiijgMgrr",
"ggHHr.QRRSSTTTTTTiiiiiiiiiiiiiiiiiiiiiiiiiiiiiiiiiiiiiiiiijgggHr",
"ggHHr.QRRSSTTTTTTiiiiiiiiiiiiiiiiiiiiiiiiiiiiiiiiiiiiiiiiijgggrr",
"IgHrP.QRRSSTTTTTTiiiiiiiiiiiiiiiiiiiiiiiiiiiiiiiiiiiiiiiiijIIIHr",
"gIrrP.QRRSSTTTTTTiiiiiiiiiiiiiiiiiiiiiiiiiiiiiiiiiiiiiiiiijIIIrr",
"IIrPd.QRRSSTTTTTTiiiiiiiiiiiiiiiiiiiiiiiiiiiiiiiiiiiiiiiiijsIsrr",
"IIPPd.QRRSSTTTTTTiiiiiiiiiiiiiiiiiiiiiiiiiiiiiiiiiiiiiiiiijIssrP",
"IIPdd.QRRSSTTTTTTiiiiiiiiiiiiiiiiiiiiiiiiiiiiiiiiiiiiiiiiijusurP",
"ssddF.QRRSSTTTTTTiiiiiiiiiiiiiiiiiiiiiiiiiiiiiiiiiiiiiiiiijsuuPP",
"ssPdF.QRRSSTTTTTTiiiiiiiiiiiiiiiiiiiiiiiiiiiiiiiiiiiiiiiiijuuurP",
"ssFFp.QRRSSTTTTTTiiiiiiiiiiiiiiiiiiiiiiiiiiiiiiiiiiiiiiiiijuubPP",
"usFFp.QRRSSTTTTTTiiiiiiiiiiiiiiiiiiiiiiiiiiiiiiiiiiiiiiiiijbDDPd",
"suFpp.QRRSSTTTTTTiiiiiiiiiiiiiiiiiiiiiiiiiiiiiiiiiiiiiiiiijbDDdP",
"uuFpN.QRRSSTTTTTTiiiiiiiiiiiiiiiiiiiiiiiiiiiiiiiiiiiiiiiiijbDvdd",
"uupNN.QRRSSTTTTTTiiiiiiiiiiiiiiiiiiiiiiiiiiiiiiiiiiiiiiiiijvvvdd",
"bbppN.QRRSSTTTTTTiiiiiiiiiiiiiiiiiiiiiiiiiiiiiiiiiiiiiiiiijDvvdd",
"uuNhh.QRRSSTTTTTTiiiiiiiiiiiiiiiiiiiiiiiiiiiiiiiiiiiiiiiiijvkzFF",
"buNNh.QRRSSTTTTTTiiiiiiiiiiiiiiiiiiiiiiiiiiiiiiiiiiiiiiiiijkkkdd",
"bDNhh.QRRSSTTTTTTiiiiiiiiiiiiiiiiiiiiiiiiiiiiiiiiiiiiiiiiijkzzdF",
"bbhhJ.QRRSSTTTTTTiiiiiiiiiiiiiiiiiiiiiiiiiiiiiiiiiiiiiiiiijzkzdd",
"bbNJJ.QRRSSTTTTTTiiiiiiiiiiiiiiiiiiiiiiiiiiiiiiiiiiiiiiiiijkzkdF",
"DDhJJ.QRRSSTTTTTTiiiiiiiiiiiiiiiiiiiiiiiiiiiiiiiiiiiiiiiiijkzzdd",
"bDJJt.QRRSSTTTTTTiiiiiiiiiiiiiiiiiiiiiiiiiiiiiiiiiiiiiiiiijzkkdF",
"bDJJt.QRRSSTTTTTTiiiiiiiiiiiiiiiiiiiiiiiiiiiiiiiiiiiiiiiiijzzzdd",
"DDJtt.QRRSSTTTTTTiiiiiiiiiiiiiiiiiiiiiiiiiiiiiiiiiiiiiiiiijkkkdF",
"DDtyy.QRRSSTTTTTTiiiiiiiiiiiiiiiiiiiiiiiiiiiiiiiiiiiiiiiiijzzzdd",
"Dvty#.QRRSSTTTTTTiiiiiiiiiiiiiiiiiiiiiiiiiiiiiiiiiiiiiiiiijzkkdF",
"vvy##ijjjjjjjjjjjjjjjjjjjjjjjjjjjjjjjjjjjjjjjjjjjjjjjjjjjjjzzzdd",
"vvy#BBmmmmmKeeGGGGGGGqqOOccEoMMMgggMggIIIsubbbDDvkkkvvvvkkkkkkdF",
"vk#BBBmmKKeeGGGGGGOOOcEccEEEMMMMgIIIssuuuubDvvkkkzkzzzzzzzzzzzdd",
"kk##mmmKKKKeeGGGqOqOOccEEEoMoMMgggIIsssuuDDDDvvkzkzkkkkkkkkkkkdF",
"vGxxllllAAAAAAwAwawaaaaCCCCnnnnLLLfLfffHfHHrrPPPPPPPPddddddddddd",
"GxlxlllllAAAAwwwwwaaaCCCCCnCnnLnLLLLffffHHHrrrPrPPPddPPPPddddddF"
};
