/* XPM */
static char * back_xpm[] = {
"64 64 8 1",
" 	c #DDDDDDDDDDDD",
".	c #222222222222",
"X	c #B6DAB6DAB6DA",
"o	c #28A228A228A2",
"Q	c #00009E790000",
"R	c #0000A6990000",
"S	c #A699A6990000",
"T	c #A69900000000",
"                                                                ",
"                                                               .",
"  XXXXXXXXXXXXXXXXXXXXXXXXXXXXXXXXXXXXXXXXXXXXXXXXXXXXXXXXXXXX..",
"  XXXXXXXXXXXXXXXXXXXXXXXXXXXXXXXXXXXXXXXXXXXXXXXXXXXXXXXXXXXX..",
"  XXXXXXXXXXXXXXXXXXXXXXXXXXXXXXXXXXXXXXXXXXXXXXXXXXXXXXXXXXXX..",
"  XXX.....................................................oXXX..",
"  XXX.QRRSSTTTTTTooooooooooooooooooooooooooooooooooooooooo XXX..",
"  XXX.QRRSSTTTTTTooooooooooooooooooooooooooooooooooooooooo XXX..",
"  XXX.QRRSSTTTTTTooooooooooooooooooooooooooooooooooooooooo XXX..",
"  XXX.QRRSSTTTTTTooooooooooooooooooooooooooooooooooooooooo XXX..",
"  XXX.QRRSSTTTTTTooooooooooooooooooooooooooooooooooooooooo XXX..",
"  XXX.QRRSSTTTTTTooooooooooooooooooooooooooooooooooooooooo XXX..",
"  XXX.QRRSSTTTTTTooooooooooooooooooooooooooooooooooooooooo XXX..",
"  XXX.QRRSSTTTTTTooooooooooooooooooooooooooooooooooooooooo XXX..",
"  XXX.QRRSSTTTTTTooooooooooooooooooooooooooooooooooooooooo XXX..",
"  XXX.QRRSSTTTTTTooooooooooooooooooooooooooooooooooooooooo XXX..",
"  XXX.QRRSSTTTTTTooooooooooooooooooooooooooooooooooooooooo XXX..",
"  XXX.QRRSSTTTTTTooooooooooooooooooooooooooooooooooooooooo XXX..",
"  XXX.QRRSSTTTTTTooooooooooooooooooooooooooooooooooooooooo XXX..",
"  XXX.QRRSSTTTTTTooooooooooooooooooooooooooooooooooooooooo XXX..",
"  XXX.QRRSSTTTTTTooooooooooooooooooooooooooooooooooooooooo XXX..",
"  XXX.QRRSSTTTTTTooooooooooooooooooooooooooooooooooooooooo XXX..",
"  XXX.QRRSSTTTTTTooooooooooooooooooooooooooooooooooooooooo XXX..",
"  XXX.QRRSSTTTTTTooooooooooooooooooooooooooooooooooooooooo XXX..",
"  XXX.QRRSSTTTTTTooooooooooooooooooooooooooooooooooooooooo XXX..",
"  XXX.QRRSSTTTTTTooooooooooooooooooooooooooooooooooooooooo XXX..",
"  XXX.QRRSSTTTTTTooooooooooooooooooooooooooooooooooooooooo XXX..",
"  XXX.QRRSSTTTTTTooooooooooooooooooooooooooooooooooooooooo XXX..",
"  XXX.QRRSSTTTTTTooooooooooooooooooooooooooooooooooooooooo XXX..",
"  XXX.QRRSSTTTTTTooooooooooooooooooooooooooooooooooooooooo XXX..",
"  XXX.QRRSSTTTTTTooooooooooooooooooooooooooooooooooooooooo XXX..",
"  XXX.QRRSSTTTTTTooooooooooooooooooooooooooooooooooooooooo XXX..",
"  XXX.QRRSSTTTTTTooooooooooooooooooooooooooooooooooooooooo XXX..",
"  XXX.QRRSSTTTTTTooooooooooooooooooooooooooooooooooooooooo XXX..",
"  XXX.QRRSSTTTTTTooooooooooooooooooooooooooooooooooooooooo XXX..",
"  XXX.QRRSSTTTTTTooooooooooooooooooooooooooooooooooooooooo XXX..",
"  XXX.QRRSSTTTTTTooooooooooooooooooooooooooooooooooooooooo XXX..",
"  XXX.QRRSSTTTTTTooooooooooooooooooooooooooooooooooooooooo XXX..",
"  XXX.QRRSSTTTTTTooooooooooooooooooooooooooooooooooooooooo XXX..",
"  XXX.QRRSSTTTTTTooooooooooooooooooooooooooooooooooooooooo XXX..",
"  XXX.QRRSSTTTTTTooooooooooooooooooooooooooooooooooooooooo XXX..",
"  XXX.QRRSSTTTTTTooooooooooooooooooooooooooooooooooooooooo XXX..",
"  XXX.QRRSSTTTTTTooooooooooooooooooooooooooooooooooooooooo XXX..",
"  XXX.QRRSSTTTTTTooooooooooooooooooooooooooooooooooooooooo XXX..",
"  XXX.QRRSSTTTTTTooooooooooooooooooooooooooooooooooooooooo XXX..",
"  XXX.QRRSSTTTTTTooooooooooooooooooooooooooooooooooooooooo XXX..",
"  XXX.QRRSSTTTTTTooooooooooooooooooooooooooooooooooooooooo XXX..",
"  XXX.QRRSSTTTTTTooooooooooooooooooooooooooooooooooooooooo XXX..",
"  XXX.QRRSSTTTTTTooooooooooooooooooooooooooooooooooooooooo XXX..",
"  XXX.QRRSSTTTTTTooooooooooooooooooooooooooooooooooooooooo XXX..",
"  XXX.QRRSSTTTTTTooooooooooooooooooooooooooooooooooooooooo XXX..",
"  XXX.QRRSSTTTTTTooooooooooooooooooooooooooooooooooooooooo XXX..",
"  XXX.QRRSSTTTTTTooooooooooooooooooooooooooooooooooooooooo XXX..",
"  XXX.QRRSSTTTTTTooooooooooooooooooooooooooooooooooooooooo XXX..",
"  XXX.QRRSSTTTTTTooooooooooooooooooooooooooooooooooooooooo XXX..",
"  XXX.QRRSSTTTTTTooooooooooooooooooooooooooooooooooooooooo XXX..",
"  XXX.QRRSSTTTTTTooooooooooooooooooooooooooooooooooooooooo XXX..",
"  XXX.QRRSSTTTTTTooooooooooooooooooooooooooooooooooooooooo XXX..",
"  XXXo                                                     XXX..",
"  XXXXXXXXXXXXXXXXXXXXXXXXXXXXXXXXXXXXXXXXXXXXXXXXXXXXXXXXXXXX..",
"  XXXXXXXXXXXXXXXXXXXXXXXXXXXXXXXXXXXXXXXXXXXXXXXXXXXXXXXXXXXX..",
"  XXXXXXXXXXXXXXXXXXXXXXXXXXXXXXXXXXXXXXXXXXXXXXXXXXXXXXXXXXXX..",
"  ..............................................................",
" ..............................................................."};
