/* XPM */
static char *ballot_box[] = {
/* width height num_colors chars_per_pixel */
"    48    48      228            2",
/* colors */
".. c #b2c0dc",
".# c #101410",
".a c #100c10",
".b c #bebabe",
".c c #969696",
".d c #000000",
".e c #281408",
".f c #100800",
".g c #181c18",
".h c #9e9a9e",
".i c #dfdfdf",
".j c #efe7e7",
".k c #968279",
".l c #864920",
".m c #be6128",
".n c #9e5528",
".o c #864120",
".p c #080808",
".q c #202420",
".r c #696969",
".s c #d7d7d7",
".t c #ffffff",
".u c #e79a61",
".v c #e78a49",
".w c #f7e3d7",
".x c #f7ebe7",
".y c #be8249",
".z c #793818",
".A c #080400",
".B c #797d79",
".C c #b68286",
".D c #dfe3df",
".E c #494d49",
".F c #515551",
".G c #c7c3c7",
".H c #f7f7f7",
".I c #f7d7c7",
".J c #efd3b6",
".K c #cfcfd7",
".L c #e7aa61",
".M c #e7ae69",
".N c #df9659",
".O c #b67949",
".P c #693018",
".Q c #280c00",
".R c #b6b2b6",
".S c #c7a6a6",
".T c #b68e96",
".U c #616161",
".V c #dfbebe",
".W c #964541",
".X c #e7cfcf",
".Y c #a67579",
".Z c #cfaeb6",
".0 c #a6aaa6",
".1 c #e7dbcf",
".2 c #c78e51",
".3 c #dfa261",
".4 c #ae6d41",
".5 c #8e4d28",
".6 c #592c10",
".7 c #413430",
".8 c #867971",
".9 c #96868e",
"#. c #d7d3cf",
"## c #595d59",
"#a c #383c38",
"#b c #303430",
"#c c #efebef",
"#d c #9e5151",
"#e c #efdfdf",
"#f c #fff7f7",
"#g c #c7c3be",
"#h c #865530",
"#i c #e7aa69",
"#j c #efb271",
"#k c #be8651",
"#l c #9e5d30",
"#m c #794120",
"#n c #493428",
"#o c #383030",
"#p c #282c28",
"#q c #080000",
"#r c #eff3ef",
"#s c #414541",
"#t c #381408",
"#u c #302018",
"#v c #794d30",
"#w c #efb671",
"#x c #713c20",
"#y c #490c08",
"#z c #381808",
"#A c #d78241",
"#B c #d78e49",
"#C c #ae7951",
"#D c #d7c7c7",
"#E c #717171",
"#F c #201810",
"#G c #8e8e8e",
"#H c #e7b679",
"#I c #efc379",
"#J c #d7b279",
"#K c #693c28",
"#L c #180808",
"#M c #b66930",
"#N c #e7ae86",
"#O c #cfd7d7",
"#P c #f7d796",
"#Q c #ffdf9e",
"#R c #cf7d41",
"#S c #df9a69",
"#T c #96a69e",
"#U c #c7cbc7",
"#V c #617d71",
"#W c #efcba6",
"#X c #efba79",
"#Y c #f7d38e",
"#Z c #cf6930",
"#0 c #cf7538",
"#1 c #cfcbcf",
"#2 c #868686",
"#3 c #184128",
"#4 c #a6b2ae",
"#5 c #f7e3cf",
"#6 c #efb686",
"#7 c #df7530",
"#8 c #df7d38",
"#9 c #cf7938",
"a. c #511c08",
"a# c #491808",
"aa c #492818",
"ab c #718e86",
"ac c #8e7161",
"ad c #f7c786",
"ae c #ffe3a6",
"af c #dfa259",
"ag c #df7938",
"ah c #ae5d28",
"ai c #df8238",
"aj c #d77938",
"ak c #716d69",
"al c #080408",
"am c #180800",
"an c #b67541",
"ao c #d77130",
"ap c #793c28",
"aq c #301c18",
"ar c #d77d41",
"as c #d78a49",
"at c #512008",
"au c #e7aa71",
"av c #cf6128",
"aw c #383430",
"ax c #411808",
"ay c #592008",
"az c #615538",
"aA c #df9651",
"aB c #e79a59",
"aC c #d76d30",
"aD c #9e4d20",
"aE c #301008",
"aF c #8e3410",
"aG c #692810",
"aH c #a65528",
"aI c #797151",
"aJ c #593428",
"aK c #df9251",
"aL c #d78e51",
"aM c #d76930",
"aN c #963810",
"aO c #612410",
"aP c #d78649",
"aQ c #cf6528",
"aR c #612810",
"aS c #8e3c18",
"aT c #792c10",
"aU c #863410",
"aV c #ae5120",
"aW c #713418",
"aX c #b64518",
"aY c #793010",
"aZ c #c75d28",
"a0 c #be5520",
"a1 c #300800",
"a2 c #200400",
"a3 c #100400",
"a4 c #712c10",
"a5 c #c75928",
"a6 c #efe3df",
"a7 c #f7d396",
"a8 c #9e4518",
"a9 c #a69696",
"b. c #415d51",
"b# c #415149",
"ba c #be5120",
"bb c #be9696",
"bc c #8e3438",
"bd c #8e9a96",
"be c #b64d20",
"bf c #b65120",
"bg c #692c10",
"bh c #514538",
"bi c #382c28",
"bj c #282018",
"bk c #9e3818",
"bl c #a64518",
"bm c #963818",
"bn c #b6aeae",
"bo c #869a8e",
"bp c #ae4518",
"bq c #a68671",
"br c #862c10",
"bs c #692410",
"bt c #714d38",
"bu c #495161",
"bv c #79828e",
"bw c #414151",
"bx c #bebec7",
"by c #ae4118",
"bz c #616171",
"bA c #303049",
"bB c #8e929e",
"bC c #a63c18",
"bD c #515161",
"bE c #9e9eae",
"bF c #695141",
"bG c #aeaeb6",
"bH c #697179",
/* pixels */
".............................................#.a................................................",
"...........................................#.b.c.d.d.e.f.d.......................g.d............",
".........................................g.h.i.j.k.l.m.n.o.e.f.................p.b.h.q.d........",
".....................................p.r.s.t.t.t.t.u.v.w.x.y.n.z.e.A.........d.B.j.C.D.h.E.F.q.q",
".................................d.E.G.H.t.t.t.t.t.I.J.K.t.L.M.N.O.n.P.Q.d...F.R.S.C.T.t.t.H.G.U",
".................................g.D.t.V.W.X.Y.Z.t.H.k.0.1.2.L.M.M.M.3.4.5.6.7.F.8.9#..j#.###a.g",
".................................d#b#c.T.S#d#e#f.j.i.b.U#g#h.L.L.M.M#i.M#j#k#l#m#n#o##.h#p.d....",
"..............................#q.6.5.7#r.X.Z.t.j.i.G.D#s.b#t#u#v.3.L.M.M.M#j#w.3.O.5#x#y.d......",
"...........................d#z.n#A#B#C.E.t#e#D.Y#..G.h.F#E#F#G.7.4.M#H#H.M#j#j#w#w#I#J#K#q......",
"........................#L#m#M.N#N.w.G#b.c#D.Y.i.b.B#s.q.q.U.s.t.t#O.t.J.M.M#j#w#P#Q.v#t.d......",
"....................#q.6#M#R#S.R.h#r.H.h#b#G.R.h.r#b.a#p#E.0#T#U#V#T.t#W.M.M#X#Q#Y.v#Z#z.d......",
".................d#z.n#0#R#A#A#k#h#z.U#1##.g#####a.a#a#2#U#V.D#3#4#5#6.L.M#X#Q#X#7#8#8#t.d......",
"..............#L.o#M#R#R#R#A#9.la.a#aa.U.G#b.##b.g#a###1.t.tab#Oaca#.P.Ladaeafagagag#7#z.d......",
"..........#q.6ahaiaj#9#9#R#R#0#M#M#h#F#Lak.calal.a.d.fam#s#c.t.w#van.L#P#P.v#7#7agaoapaq.p.q.q.q",
".........fa#.zajaiaj#9#9#R#Rar#A#Aas#k.q.A.q.#al.d#La#a#at.E#fauaf.M#Qad#7ao#7#7ava.aw.F.G.D.D#2",
".........Aaxa#ayahaj#0#0#9#9#R#R#Aas#Qaz.d.d.q.##vaAaA.la##xauaB#wae.MaCaCaCaCaDa##p.r#..T.V.D.q",
"........#qaEaFaGa#ataH#9#0#R#R#Rar#AasadaI.faJanaAaKaAaA.laLaBad#QaKaMaMaMav.za#.Qaq.F#a#a.d.#.d",
"........#q#LaNaFaFaOa#.Pah#9#9#R#Rar#A#AaAaP#Bas#B#B#BaAaA#i#PadaravaQavavaR.zavaSaT.oaE........",
".........d.QaUaNaNaNaUaya#.P#M#R#R#R#A#A#A#AaPas#B#BaKaK#i#Q#j#ZavavavaVa#aWavavaoaXaD#t........",
".........AamamataNaNaNaNaYaya#.z#M#R#R#A#A#A#Aasas#B#B#wae.NaZaZavaZaD#taRaNa0aMaCaoaH#z........",
"..........a1a2a3.QaGaNaNaNaNa4a.a#.o#0ar#A#A#AasasaKad#Qara5aZaZa0aW.Qal#pa6.xajaCaCaH#t........",
"..........a1.Q.Q.f.f#zaFaNaNaNaNa4a.a..5#9#A#A#AaAa7adaZa0a5a5aVaO#L.p#a#d#r.IaQaMaMaH#t........",
".......d.d.Aa3#####pal.fataNaNaNaNaFaGa#at.n#R.L#Qaua0a0a0a0a8a#a3.a#oa9.j.x#ZavaQaMaH#t........",
".....p#2#2#G#c.ib.b##a.#.#ama4aNaNaNaNaFaGa#ay#JaLbaa0a0a0aSax.f.a.Ubbbc.t#SavavaQaQ.z.Q........",
"....al.U.b.H.t#c.Rbd.E.F.Ea3a3axaFaNaNaNaNaFa#a8bebfbabfbg#ta3#zbh.F.B.BbiaDaZavaZa4.Q.d........",
".........dbj#g#r#V#4#U##.QaE#t.eamataNaNaNaNa#bkbebeblaya4bmaUaTaNbmbma8aZaZavaZay#L.d.d.d......",
"...........d.ebn.tbo#1a3aEaxa4aUatam.QaGaNaNa#bkbeblaUa8babababpaNbka0a0aZa5aVatam.d.d.d........",
"..........#q.Q#t.k.D.GaEaGaUaYaUaYa4a#a3a1aTa#bkaTaTbebebababababebaa0a0a5aVa#a3.d.d.d.d........",
"...........d.eaO#tapac.PaUaYaYaTaYaTaTaG.ea3aEa.aUbpaXbebebfbaa0a0a0a8.8bqax.f.d.d.d.d..........",
"..........#q.QaUa4a#a.aOaTaTaTaTa4a4a4a4a4a.aEaGbpaXbebebebebababaa8aw.R#c.B#p.d.d.d............",
".........d.da2aTaYaTa4aGa4a4a4a4a4a4a4aGa4ay#tbrbpbpbebebebebebfaSaw.0.D.t#1.G.B.E.q.p.d.d......",
".......d.d.da3#ta4a4a4a4aGa4a4a4aGaGaGaGbsbsaxaFbpbpaXaXbebeaSaa#a.0.D.t.i.t.t.t.i.D.G.b.c.Fal..",
".....d.d.d.d.A.Aama.a4a#.FbtaGaGbsbsbsaOaOaO#taUbpaXbpaXaUaJ.F.c#1.Gbubvbw.Kbx.t.t.t.t.t.t.B.d..",
".....d.d.d.d.d.d#q.f.Q#o.c#2btbsaOaOaOaOaOaOaxa4bybpbpaXap#b.b#.#cbzbvbwbxbw.i#cbA.t.t.t.s.g.d..",
".....d.d.d.d.d.d.d.d.A.c#1.c#EaJaOaOaOaOayay#ta4bybpbpbm#ta1#u#b#1bxbBbxbw#r#rbw.K.t.t.H##.d.d..",
".......d.d.d.d.d.d.d.g.t#.#1.c.raJayayayayay#zbgbybybpbCa..e.A.d.d.B.tbD#c.tbzbE.t.t.t.b.p.d.d..",
".......d.d.d.d.d.d.g#1.ibx.D.s.h#EbFayayayay#taGbCbCbybma#a2.d.d.d.d#p#1.tbBbBbG.t.t.H#a.d.d....",
".d.d.d.d.d.d.p.F#G.t.t#cbw.K.D.s.sa9a#ayayayaEbsbCbCaNa#.A.d.d.d.d.d.d.d.B.t#2bE.t.H.c.d.d......",
".d.d.g.D.t.t.t.t.t.t#Gbv.ibw.c.D.Hbi.Qa#a.a.aEbsbCbr#ta3.d.d.d.d.d.d.d.d.d#p.K.t.j.c.a.d.d......",
".d.dal.B.H.tbB.K.tbx.KbxbzbGbH.t.h.d.fa3#ta#a1aObraE#q.d.d.d.d.d.d.d.d.d.d.d.a#2ak.p.d.d........",
".d.d.d.#.c.H#rbHbE.ibwbzbEbE.t.s.q.d.d.d.Aam.Q#taE.A.d.d.d.......d.d.d.d.d.d.d.pal.d.d.d........",
".d.d.d.d#p.0.j.tbEbH.ibE.i.t.j.E.d.d.d.d.d.d.f.f#q.d.d.d...........d.d.d.d.d.d.d.d.d.d..........",
".d.d.d.d.d#p#G.j.t.KbB.t.t.D#Eal.d.d.d.d.d.d.d.d.d.d.d.................d.d.d.d.d.d.d............",
".d.d.d.d.d.dal.E.s.t.G.t.b#b.d.d.d.d.d.d.d.d.d.d.d.d.......................d.d.d................",
"...d.d.d.d.d.d.d#p.0.i#E.a.d.d.d...d.d.d.d.d.d.d.d..............................................",
".....d.d.d.d.d.d.dal#p.d.d.d.d.............d....................................................",
".........d.d.d.d.d.d.d.d.d.d....................................................................",
"...........d.d.d.d.d.d.d.d......................................................................"
};
